<mxfile host="app.diagrams.net" modified="2024-02-15T01:16:32.623Z" agent="Mozilla/5.0 (Windows NT 10.0; Win64; x64; rv:121.0) Gecko/20100101 Firefox/121.0" version="23.1.4" etag="f6Iohdy8ezmXYK7pr0Rm" type="github">
  <diagram name="Page-1" id="ZofAnyasJrhxPLd-k3w0">
    <mxGraphModel>
      <root>
        <mxCell id="0" />
        <mxCell id="1" parent="0" />
      </root>
    </mxGraphModel>
  </diagram>
</mxfile>
